<?xml version="1.0" standalone="no"?>
<!DOCTYPE svg PUBLIC "-//W3C//DTD SVG 20010904//EN"
 "http://www.w3.org/TR/2001/REC-SVG-20010904/DTD/svg10.dtd">
<svg version="1.0" xmlns="http://www.w3.org/2000/svg"
 width="272.000000pt" height="272.000000pt" viewBox="0 0 272.000000 272.000000"
 preserveAspectRatio="xMidYMid meet">

<g transform="translate(0.000000,272.000000) scale(0.100000,-0.100000)"
fill="#000000" stroke="none">
<path d="M358 1551 c-135 -43 -195 -194 -125 -313 76 -129 252 -139 344 -20
76 100 43 257 -67 314 -43 22 -115 31 -152 19z m112 -96 c34 -18 61 -64 62
-105 2 -72 -55 -130 -127 -130 -30 0 -45 8 -76 39 -34 34 -39 44 -39 86 0 42
5 52 39 86 43 44 88 51 141 24z"/>
<path d="M936 1527 c-36 -26 4 -84 42 -61 23 15 26 38 7 58 -20 19 -26 20 -49
3z"/>
<path d="M790 1353 c0 -87 4 -163 8 -169 13 -20 52 -35 72 -29 23 7 27 43 5
51 -12 5 -15 32 -15 155 l0 149 -35 0 -35 0 0 -157z"/>
<path d="M2300 1334 l0 -175 33 3 32 3 0 63 c0 34 2 62 5 62 3 0 20 -27 38
-61 36 -64 46 -72 86 -67 l26 3 -40 63 c-22 34 -40 66 -40 70 0 5 12 24 26 43
48 64 49 69 12 69 -28 0 -38 -8 -67 -50 -18 -28 -36 -50 -40 -50 -3 0 -5 45
-3 100 l3 100 -35 0 -36 0 0 -176z"/>
<path d="M1283 1463 c-7 -2 -13 -16 -13 -29 0 -15 -6 -24 -15 -24 -9 0 -15 -9
-15 -25 0 -15 6 -25 14 -25 10 0 15 -21 18 -81 4 -65 9 -84 26 -102 22 -22 85
-28 103 -10 16 16 -1 42 -29 45 -26 3 -27 5 -30 76 -3 71 -3 72 23 72 20 0 25
5 25 25 0 20 -5 25 -25 25 -21 0 -25 5 -25 30 0 25 -4 30 -22 29 -13 0 -29 -3
-35 -6z"/>
<path d="M1090 1407 c-39 -13 -57 -48 -46 -90 4 -19 20 -31 61 -48 37 -15 55
-28 55 -40 0 -24 -35 -33 -71 -18 -26 10 -33 10 -47 -4 -15 -16 -15 -18 3 -31
50 -36 147 -22 174 25 25 44 8 77 -53 104 -62 27 -72 38 -51 55 14 12 30 11
67 -5 25 -10 45 31 21 43 -33 18 -78 21 -113 9z"/>
<path d="M1550 1413 c-8 -3 -23 -12 -32 -21 -16 -14 -18 -13 -18 1 0 12 -9 17
-30 17 l-30 0 0 -126 0 -125 33 3 32 3 3 92 c2 81 5 94 23 103 10 6 24 8 29 5
6 -3 10 -51 10 -106 l0 -100 33 3 32 3 3 92 c2 81 5 94 23 103 10 6 24 8 29 5
6 -3 10 -51 10 -106 l0 -99 36 0 36 0 -4 110 c-2 86 -7 113 -20 126 -22 23
-73 22 -98 -1 -18 -17 -22 -17 -33 -3 -14 19 -46 28 -67 21z"/>
<path d="M1873 1406 c-46 -21 -66 -57 -66 -121 0 -66 21 -101 71 -122 72 -30
145 16 157 101 16 103 -73 181 -162 142z m77 -56 c14 -14 20 -33 20 -65 0 -32
-6 -51 -20 -65 -24 -24 -30 -24 -56 -6 -28 21 -28 121 0 142 26 18 32 18 56
-6z"/>
<path d="M2153 1400 c-27 -16 -33 -17 -33 -5 0 10 -10 15 -30 15 l-30 0 0
-125 0 -125 35 0 35 0 0 88 c0 74 3 92 19 106 10 9 25 14 35 10 13 -5 16 -23
16 -106 l0 -99 33 3 32 3 0 107 c0 116 -6 131 -55 143 -16 3 -37 -2 -57 -15z"/>
<path d="M930 1285 l0 -125 30 0 30 0 0 125 0 125 -30 0 -30 0 0 -125z"/>
</g>
</svg>
